<svg xmlns="http://www.w3.org/2000/svg" xmlns:xlink="http://www.w3.org/1999/xlink" width="1587" zoomAndPan="magnify" viewBox="0 0 1190.25 842.249997" height="1122" preserveAspectRatio="xMidYMid meet" version="1.0"><defs><filter x="0%" y="0%" width="100%" height="100%" id="f94aaa72e3"><feColorMatrix values="0 0 0 0 1 0 0 0 0 1 0 0 0 0 1 0 0 0 1 0" color-interpolation-filters="sRGB"/></filter><mask id="340698f2fd"><g filter="url(#f94aaa72e3)"><rect x="-119.025" width="1428.3" fill="#000000" y="-84.225" height="1010.699996" fill-opacity="0.51"/></g></mask><clipPath id="1fff4adff8"><path d="M 1 2 L 6.601562 2 L 6.601562 8 L 1 8 Z M 1 2 " clip-rule="nonzero"/></clipPath><clipPath id="fccc2eeec1"><rect x="0" width="7" y="0" height="9"/></clipPath><mask id="be19105e25"><g filter="url(#f94aaa72e3)"><rect x="-119.025" width="1428.3" fill="#000000" y="-84.225" height="1010.699996" fill-opacity="0.44"/></g></mask><clipPath id="3450cf1a25"><path d="M 1 2 L 6.75 2 L 6.75 8 L 1 8 Z M 1 2 " clip-rule="nonzero"/></clipPath><clipPath id="2f88caad48"><rect x="0" width="7" y="0" height="10"/></clipPath></defs><path fill="#432a78" d="M 915.929688 374.863281 C 876.242188 300.15625 773.402344 304.308594 717.183594 248.101562 C 683.660156 210.316406 684.582031 149.761719 635.316406 123.945312 C 400.261719 1.875 213.566406 319.4375 284.84375 517.207031 C 400.101562 862.703125 1006.703125 748.253906 915.929688 374.863281 Z M 915.929688 374.863281 " fill-opacity="1" fill-rule="nonzero"/><path fill="#684792" d="M 920.398438 396.292969 C 881.308594 315.542969 753.761719 363.980469 713.59375 277.328125 C 691.269531 230.195312 639.304688 258.722656 600.730469 256.355469 C 599.46875 256.277344 598.214844 256.097656 596.980469 255.832031 C 538.910156 243.242188 514.042969 175.339844 458.242188 157.28125 C 434.714844 150.0625 410.894531 149.664062 387.714844 154.570312 C 313.902344 219.421875 267.855469 328.753906 269.511719 429.324219 C 302.304688 429.1875 329.503906 445.5625 333.585938 509.695312 C 339.921875 609.3125 421.410156 559.875 481.816406 618.855469 C 560.691406 729.378906 608.289062 622.949219 668.363281 654.207031 C 728.625 685.5625 798.3125 666.078125 849.714844 627.726562 C 906.421875 572.007812 937.578125 493.574219 920.398438 396.292969 Z M 920.398438 396.292969 " fill-opacity="1" fill-rule="nonzero"/><path fill="#432a78" d="M 793.230469 217.03125 C 780.195312 191.070312 707.371094 141.199219 715.761719 200.582031 C 725.191406 258.890625 862.121094 312.59375 793.230469 217.03125 Z M 793.230469 217.03125 " fill-opacity="1" fill-rule="nonzero"/><path fill="#ffffff" d="M 375.707031 301.796875 C 374.539062 301.796875 374.535156 303.621094 375.707031 303.621094 C 376.878906 303.621094 376.878906 301.796875 375.707031 301.796875 Z M 375.707031 301.796875 " fill-opacity="1" fill-rule="nonzero"/><path fill="#ffffff" d="M 309.0625 463.652344 C 307.890625 463.652344 307.886719 465.472656 309.0625 465.472656 C 310.230469 465.472656 310.234375 463.652344 309.0625 463.652344 Z M 309.0625 463.652344 " fill-opacity="1" fill-rule="nonzero"/><path fill="#ffffff" d="M 364.828125 474.523438 C 360.140625 474.523438 360.136719 481.804688 364.828125 481.804688 C 369.511719 481.804688 369.515625 474.523438 364.828125 474.523438 Z M 364.828125 474.523438 " fill-opacity="1" fill-rule="nonzero"/><path fill="#ffffff" d="M 482.699219 604.65625 C 482.554688 606.007812 482.78125 607.847656 484.515625 607.835938 C 489.179688 607.175781 484.257812 599.230469 482.699219 604.65625 Z M 482.699219 604.65625 " fill-opacity="1" fill-rule="nonzero"/><path fill="#ffffff" d="M 432.832031 536.191406 C 430.492188 536.191406 430.484375 539.828125 432.832031 539.828125 C 435.175781 539.828125 435.175781 536.191406 432.832031 536.191406 Z M 432.832031 536.191406 " fill-opacity="1" fill-rule="nonzero"/><path fill="#ffffff" d="M 636.851562 277.765625 C 634.507812 277.765625 634.507812 281.40625 636.851562 281.40625 C 639.195312 281.40625 639.195312 277.765625 636.851562 277.765625 Z M 636.851562 277.765625 " fill-opacity="1" fill-rule="nonzero"/><g mask="url(#340698f2fd)"><g transform="matrix(1, 0, 0, 1, 617, 186)"><g clip-path="url(#fccc2eeec1)"><g clip-path="url(#1fff4adff8)"><path fill="#ffffff" d="M 3.679688 2.03125 C 0.164062 2.03125 0.160156 7.492188 3.679688 7.492188 C 7.191406 7.492188 7.195312 2.03125 3.679688 2.03125 Z M 3.679688 2.03125 " fill-opacity="1" fill-rule="nonzero"/></g></g></g></g><path fill="#ffffff" d="M 819.105469 551.601562 C 814.984375 550.449219 813.261719 556.695312 817.746094 557.058594 C 821.867188 558.214844 823.59375 551.964844 819.105469 551.601562 Z M 819.105469 551.601562 " fill-opacity="1" fill-rule="nonzero"/><path fill="#ffffff" d="M 726.621094 569.742188 C 725.449219 569.742188 725.449219 571.5625 726.621094 571.5625 C 727.789062 571.5625 727.792969 569.742188 726.621094 569.742188 Z M 726.621094 569.742188 " fill-opacity="1" fill-rule="nonzero"/><path fill="#ffffff" d="M 704.855469 683.992188 C 703.6875 683.992188 703.683594 685.8125 704.855469 685.8125 C 706.027344 685.8125 706.027344 683.992188 704.855469 683.992188 Z M 704.855469 683.992188 " fill-opacity="1" fill-rule="nonzero"/><path fill="#ffffff" d="M 778.304688 622.789062 C 777.132812 622.789062 777.132812 624.609375 778.304688 624.609375 C 779.476562 624.609375 779.476562 622.789062 778.304688 622.789062 Z M 778.304688 622.789062 " fill-opacity="1" fill-rule="nonzero"/><path fill="#ffffff" d="M 891.195312 489.945312 C 888.851562 489.945312 888.847656 493.585938 891.195312 493.585938 C 893.535156 493.585938 893.539062 489.945312 891.195312 489.945312 Z M 891.195312 489.945312 " fill-opacity="1" fill-rule="nonzero"/><path fill="#ffffff" d="M 764.703125 388.84375 C 763.53125 388.84375 763.53125 390.667969 764.703125 390.667969 C 765.871094 390.667969 765.875 388.84375 764.703125 388.84375 Z M 764.703125 388.84375 " fill-opacity="1" fill-rule="nonzero"/><path fill="#ffffff" d="M 604.207031 625.507812 C 603.039062 625.507812 603.035156 627.328125 604.207031 627.328125 C 605.378906 627.328125 605.378906 625.507812 604.207031 625.507812 Z M 604.207031 625.507812 " fill-opacity="1" fill-rule="nonzero"/><path fill="#ffffff" d="M 543.003906 658.609375 C 544.046875 658.785156 546.019531 658.46875 545.007812 657.058594 C 543.738281 655.921875 540.464844 657.699219 543.003906 658.609375 Z M 543.003906 658.609375 " fill-opacity="1" fill-rule="nonzero"/><path fill="#ffffff" d="M 411.070312 615.988281 C 409.902344 615.988281 409.898438 617.808594 411.070312 617.808594 C 412.242188 617.808594 412.242188 615.988281 411.070312 615.988281 Z M 411.070312 615.988281 " fill-opacity="1" fill-rule="nonzero"/><path fill="#ffffff" d="M 420.59375 401.097656 C 421.945312 401.238281 423.78125 401.011719 423.773438 399.277344 C 423.109375 394.613281 415.167969 399.535156 420.59375 401.097656 Z M 420.59375 401.097656 " fill-opacity="1" fill-rule="nonzero"/><path fill="#ffffff" d="M 358.027344 388.84375 C 356.855469 388.84375 356.851562 390.667969 358.027344 390.667969 C 359.195312 390.667969 359.199219 388.84375 358.027344 388.84375 Z M 358.027344 388.84375 " fill-opacity="1" fill-rule="nonzero"/><path fill="#ffffff" d="M 438.273438 270.515625 C 437.101562 270.515625 437.097656 272.335938 438.273438 272.335938 C 439.441406 272.335938 439.445312 270.515625 438.273438 270.515625 Z M 438.273438 270.515625 " fill-opacity="1" fill-rule="nonzero"/><path fill="#ffffff" d="M 525.320312 266.433594 C 524.148438 266.433594 524.148438 268.257812 525.320312 268.257812 C 526.492188 268.257812 526.492188 266.433594 525.320312 266.433594 Z M 525.320312 266.433594 " fill-opacity="1" fill-rule="nonzero"/><path fill="#ffffff" d="M 480.4375 212.929688 C 476.925781 212.929688 476.917969 218.390625 480.4375 218.390625 C 483.949219 218.390625 483.957031 212.929688 480.4375 212.929688 Z M 480.4375 212.929688 " fill-opacity="1" fill-rule="nonzero"/><path fill="#ffffff" d="M 508.089844 131.332031 C 507.917969 132.378906 508.230469 134.351562 509.644531 133.335938 C 510.777344 132.070312 509 128.796875 508.089844 131.332031 Z M 508.089844 131.332031 " fill-opacity="1" fill-rule="nonzero"/><path fill="#ffffff" d="M 460.035156 135.863281 C 458.863281 135.863281 458.863281 137.683594 460.035156 137.683594 C 461.207031 137.683594 461.207031 135.863281 460.035156 135.863281 Z M 460.035156 135.863281 " fill-opacity="1" fill-rule="nonzero"/><path fill="#ffffff" d="M 559.324219 197.066406 C 558.152344 197.066406 558.148438 198.890625 559.324219 198.890625 C 560.492188 198.890625 560.496094 197.066406 559.324219 197.066406 Z M 559.324219 197.066406 " fill-opacity="1" fill-rule="nonzero"/><path fill="#ffffff" d="M 692.613281 376.605469 C 691.445312 376.605469 691.441406 378.425781 692.613281 378.425781 C 693.785156 378.425781 693.789062 376.605469 692.613281 376.605469 Z M 692.613281 376.605469 " fill-opacity="1" fill-rule="nonzero"/><path fill="#ffffff" d="M 774.222656 307.699219 C 775.265625 307.871094 777.242188 307.558594 776.226562 306.144531 C 774.960938 305.011719 771.6875 306.789062 774.222656 307.699219 Z M 774.222656 307.699219 " fill-opacity="1" fill-rule="nonzero"/><path fill="#ffffff" d="M 819.109375 427.386719 C 820.277344 427.386719 820.28125 425.570312 819.109375 425.570312 C 817.9375 425.570312 817.933594 427.386719 819.109375 427.386719 Z M 819.109375 427.386719 " fill-opacity="1" fill-rule="nonzero"/><path fill="#ffffff" d="M 686.53125 629.855469 C 685.398438 631.121094 687.175781 634.394531 688.085938 631.859375 C 688.257812 630.816406 687.945312 628.839844 686.53125 629.855469 Z M 686.53125 629.855469 " fill-opacity="1" fill-rule="nonzero"/><g mask="url(#be19105e25)"><g transform="matrix(1, 0, 0, 1, 584, 140)"><g clip-path="url(#2f88caad48)"><g clip-path="url(#3450cf1a25)"><path fill="#ffffff" d="M 3.886719 2.203125 C 0.375 2.203125 0.367188 7.664062 3.886719 7.664062 C 7.398438 7.664062 7.40625 2.203125 3.886719 2.203125 Z M 3.886719 2.203125 " fill-opacity="1" fill-rule="nonzero"/></g></g></g></g><path fill="#ffffff" d="M 767.421875 240.132812 C 763.910156 240.132812 763.902344 245.59375 767.421875 245.59375 C 770.9375 245.59375 770.941406 240.132812 767.421875 240.132812 Z M 767.421875 240.132812 " fill-opacity="1" fill-rule="nonzero"/><path fill="#ffce01" d="M 338.921875 286.855469 C 339.160156 284.347656 338.613281 281.828125 337.359375 279.644531 C 335.40625 276.238281 332.5625 271.316406 331.785156 270.152344 C 330.414062 268.105469 332.285156 265.382812 334.34375 264.921875 C 336.117188 264.527344 341.59375 263.21875 344.875 262.503906 C 346.441406 262.160156 347.839844 261.285156 348.835938 260.03125 C 350.90625 257.421875 354.335938 253.070312 355.28125 251.867188 C 357.066406 249.601562 360.160156 249.6875 361.660156 252.226562 C 362.535156 253.703125 365.378906 258.507812 367.054688 261.316406 C 367.867188 262.671875 369.113281 263.714844 370.59375 264.265625 C 373.230469 265.25 380.773438 267.960938 381.160156 268.238281 C 383.511719 269.496094 383.472656 272.484375 382.035156 274.117188 C 382.007812 274.152344 381.992188 274.1875 381.964844 274.222656 C 380.839844 275.496094 377.238281 279.582031 375.105469 282.015625 C 374.058594 283.210938 373.449219 284.730469 373.386719 286.320312 C 373.246094 289.734375 373.011719 295.671875 372.953125 297.246094 C 372.867188 299.433594 370.339844 301.476562 368.15625 300.535156 C 366.542969 299.835938 361.007812 297.476562 357.859375 296.144531 C 356.417969 295.535156 354.816406 295.429688 353.308594 295.839844 C 349.964844 296.75 344.078125 298.375 342.550781 298.808594 C 340.3125 299.441406 337.945312 297.234375 338.152344 295.003906 C 338.285156 293.601562 338.644531 289.804688 338.921875 286.855469 Z M 338.921875 286.855469 " fill-opacity="1" fill-rule="nonzero"/><path fill="#ffffff" d="M 328.992188 268.554688 C 329 267.882812 329.132812 267.203125 329.402344 266.535156 C 330.171875 264.605469 331.910156 263.085938 333.832031 262.65625 C 334.488281 262.507812 335.648438 262.238281 337.011719 261.917969 C 339.359375 261.371094 342.304688 260.683594 344.375 260.230469 C 345.414062 260.003906 346.351562 259.417969 347.011719 258.585938 C 349.082031 255.980469 352.511719 251.628906 353.457031 250.429688 C 354.816406 248.707031 356.761719 247.796875 358.800781 247.933594 C 360.796875 248.0625 362.570312 249.199219 363.660156 251.042969 C 364.535156 252.519531 367.375 257.316406 369.050781 260.125 C 369.585938 261.023438 370.425781 261.722656 371.40625 262.089844 C 372.117188 262.355469 373.191406 262.75 374.382812 263.183594 C 380.785156 265.527344 381.882812 265.960938 382.34375 266.238281 C 383.90625 267.105469 384.941406 268.542969 385.261719 270.296875 C 385.597656 272.148438 385.085938 274.089844 383.890625 275.527344 C 383.890625 275.527344 383.722656 275.742188 383.722656 275.742188 C 383.722656 275.742188 383.265625 276.261719 383.265625 276.261719 C 381.828125 277.890625 378.753906 281.378906 376.851562 283.546875 C 376.15625 284.339844 375.75 285.359375 375.707031 286.414062 C 375.707031 286.414062 375.273438 297.335938 375.273438 297.335938 C 375.199219 299.238281 374.082031 301.097656 372.351562 302.1875 C 370.738281 303.203125 368.871094 303.378906 367.234375 302.667969 C 365.621094 301.972656 360.09375 299.617188 356.949219 298.285156 C 355.996094 297.882812 354.917969 297.808594 353.917969 298.082031 C 350.582031 298.992188 344.707031 300.617188 343.183594 301.046875 C 341.449219 301.535156 339.523438 301.089844 338.039062 299.847656 C 336.484375 298.550781 335.660156 296.660156 335.835938 294.785156 C 335.835938 294.785156 336.605469 286.636719 336.605469 286.636719 C 336.804688 284.597656 336.363281 282.582031 335.339844 280.804688 C 332.417969 275.703125 330.414062 272.292969 329.847656 271.445312 C 329.269531 270.578125 328.980469 269.582031 328.992188 268.554688 Z M 380 270.257812 C 379.253906 269.917969 375.21875 268.441406 372.785156 267.550781 C 371.582031 267.109375 370.5 266.714844 369.78125 266.445312 C 367.8125 265.710938 366.132812 264.3125 365.058594 262.507812 C 363.378906 259.695312 360.53125 254.890625 359.660156 253.410156 C 359.351562 252.890625 358.949219 252.601562 358.492188 252.570312 C 358.007812 252.539062 357.503906 252.808594 357.109375 253.308594 C 356.164062 254.511719 352.726562 258.867188 350.652344 261.476562 C 349.324219 263.148438 347.449219 264.320312 345.367188 264.773438 C 343.316406 265.222656 340.394531 265.90625 338.070312 266.445312 C 336.6875 266.769531 335.511719 267.042969 334.847656 267.191406 C 334.480469 267.277344 333.941406 267.707031 333.722656 268.261719 C 333.566406 268.644531 333.671875 268.796875 333.714844 268.863281 C 334.523438 270.074219 337.238281 274.765625 339.375 278.488281 C 340.875 281.105469 341.511719 284.078125 341.234375 287.074219 C 341.234375 287.074219 340.46875 295.222656 340.46875 295.222656 C 340.433594 295.5625 340.664062 295.984375 341.019531 296.277344 C 341.132812 296.375 341.539062 296.679688 341.917969 296.570312 C 343.445312 296.140625 349.34375 294.511719 352.695312 293.597656 C 354.699219 293.050781 356.855469 293.195312 358.761719 294.003906 C 361.917969 295.339844 367.460938 297.703125 369.082031 298.402344 C 369.363281 298.527344 369.699219 298.359375 369.875 298.25 C 370.289062 297.988281 370.613281 297.519531 370.628906 297.15625 C 370.628906 297.15625 371.0625 286.226562 371.0625 286.226562 C 371.148438 284.113281 371.964844 282.070312 373.359375 280.484375 C 375.261719 278.308594 378.339844 274.816406 379.773438 273.1875 C 379.773438 273.1875 380.234375 272.648438 380.234375 272.648438 C 380.617188 272.210938 380.773438 271.625 380.683594 271.128906 C 380.613281 270.746094 380.421875 270.480469 380.0625 270.289062 C 380.0625 270.289062 380 270.257812 380 270.257812 Z M 380 270.257812 " fill-opacity="1" fill-rule="nonzero"/><path fill="#acb0c5" d="M 687.464844 605.652344 C 762.285156 569.15625 740.929688 509.886719 747.339844 516.941406 C 779.828125 552.703125 795.445312 522.804688 798.617188 505.3125 C 807.082031 458.597656 789.738281 426.277344 776.398438 436.03125 C 763.058594 445.789062 759.425781 464.777344 750.542969 476.992188 C 732.585938 442.382812 706.1875 437.144531 692.609375 456.835938 C 691.902344 457.859375 691.382812 459 690.886719 460.144531 C 689.890625 462.449219 684.820312 468.472656 659.195312 474.566406 C 626.585938 482.324219 611.433594 503.835938 606.980469 537.660156 C 603.886719 561.183594 607.8125 583.742188 622.574219 596.109375 C 641.472656 611.933594 672.523438 612.941406 687.464844 605.652344 Z M 687.464844 605.652344 " fill-opacity="1" fill-rule="nonzero"/><path fill="#ffffff" d="M 717.707031 452.449219 C 703.085938 472.265625 719.015625 485.089844 719.015625 485.089844 C 719.015625 485.089844 738.988281 491.28125 743.003906 502.535156 C 747.019531 513.785156 748.5 474.140625 748.5 474.140625 C 748.5 474.140625 760.429688 525.898438 762.320312 509.867188 C 764.210938 493.832031 769.480469 449.160156 769.480469 449.160156 C 769.480469 449.160156 758.21875 472.3125 749.207031 468.976562 C 740.191406 465.640625 734.527344 451.992188 717.707031 452.449219 Z M 717.707031 452.449219 " fill-opacity="1" fill-rule="nonzero"/><path fill="#bd1e2c" d="M 725.332031 448.136719 C 725.332031 448.136719 713.214844 448.683594 713.214844 448.683594 C 689.761719 471.75 707.746094 532.992188 732.644531 553.917969 C 732.644531 553.917969 743.128906 541.96875 743.128906 541.96875 C 724.917969 526.703125 708.03125 464.953125 725.332031 448.136719 Z M 725.332031 448.136719 " fill-opacity="1" fill-rule="nonzero"/><path fill="#ffffff" d="M 799.148438 491.785156 C 794.25 495.527344 774.269531 490.40625 774.503906 497.832031 C 777.78125 506.039062 795.886719 498.921875 801.722656 498.34375 C 805.863281 496.4375 802.171875 486.878906 799.148438 491.785156 Z M 800.035156 491.558594 C 800 491.566406 799.960938 491.578125 799.929688 491.585938 C 799.929688 491.585938 799.929688 491.582031 799.929688 491.582031 C 800.101562 491.53125 800.136719 491.523438 800.035156 491.558594 Z M 800.035156 491.558594 " fill-opacity="1" fill-rule="nonzero"/><path fill="#ffffff" d="M 798.101562 472.101562 C 795.179688 472.867188 764.261719 472.550781 776.179688 482.078125 C 779.074219 480.132812 810.152344 481.964844 798.101562 472.101562 Z M 798.101562 472.101562 " fill-opacity="1" fill-rule="nonzero"/><path stroke-linecap="round" transform="matrix(1.354921, 0.0154664, -0.0154664, 1.354921, 705.37733, 519.314106)" fill="none" stroke-linejoin="round" d="M -12.491303 63.864541 C 42.415217 36.301837 26.156593 -7.256461 30.94642 -2.104423 C 55.222525 24.01241 66.495436 1.817182 68.688785 -11.117967 C 74.541938 -45.66268 61.470791 -69.367487 51.708763 -62.057181 C 41.946768 -54.743993 39.425872 -40.700913 32.973658 -31.612093 C 19.430655 -57.000956 -0.0943041 -60.644194 -9.948462 -45.998463 C -10.461597 -45.237258 -10.835379 -44.391153 -11.191832 -43.542362 C -11.90749 -41.833218 -15.598407 -37.345487 -34.457148 -32.632722 C -58.456018 -26.633121 -69.456543 -10.630822 -72.457819 14.367409 C -74.54271 31.752685 -71.455637 48.366821 -60.457989 57.368889 C -46.378512 68.88724 -23.455973 69.369397 -12.491303 63.864541 Z M -12.491303 63.864541 " stroke="#221f1f" stroke-width="8" stroke-opacity="1" stroke-miterlimit="4"/><path stroke-linecap="round" transform="matrix(1.354921, 0.0154664, -0.0154664, 1.354921, 769.461797, 480.568953)" fill="none" stroke-linejoin="round" d="M 9.078933 -33.000643 C 9.078933 -33.000643 -13.078763 15.588808 13.078601 33.000545 " stroke="#221f1f" stroke-width="6" stroke-opacity="1" stroke-miterlimit="4"/><path stroke-linecap="round" transform="matrix(1.354921, 0.0154664, -0.0154664, 1.354921, 783.694083, 469.198183)" fill="none" stroke-linejoin="round" d="M -8.67148 1.489359 C -8.67148 1.489359 8.670396 -1.490701 8.670396 -1.490701 " stroke="#221f1f" stroke-width="6" stroke-opacity="1" stroke-miterlimit="4"/><path stroke-linecap="round" transform="matrix(1.354921, 0.0154664, -0.0154664, 1.354921, 782.766733, 491.080544)" fill="none" stroke-linejoin="round" d="M -8.16978 1.645414 C -8.16978 1.645414 8.171019 -1.646116 8.171019 -1.646116 " stroke="#221f1f" stroke-width="6" stroke-opacity="1" stroke-miterlimit="4"/><path fill="#acb0c5" d="M 475.296875 452.292969 C 462.15625 453.878906 433.160156 485.425781 437.035156 502.78125 C 440.910156 520.140625 581.949219 656.195312 608.472656 652.425781 C 635 648.65625 692.125 557.605469 692.125 557.605469 C 692.125 557.605469 578.96875 412.398438 569.128906 411.4375 C 559.289062 410.476562 475.296875 452.292969 475.296875 452.292969 Z M 475.296875 452.292969 " fill-opacity="1" fill-rule="nonzero"/><path fill="#ffffff" d="M 466.59375 495.59375 C 461.832031 499.65625 457.0625 503.707031 452.25 507.710938 C 482.628906 543.621094 566.414062 622.195312 601.261719 638.316406 C 602.328125 636.871094 603.441406 635.453125 604.519531 634.007812 C 554.839844 591.679688 508.226562 546.640625 466.59375 495.59375 Z M 466.59375 495.59375 " fill-opacity="1" fill-rule="nonzero"/><path fill="#221f1f" d="M 689.648438 537.25 C 686.785156 537.363281 668.90625 535.511719 633.097656 505.4375 C 559.410156 443.546875 572.597656 406.257812 569.664062 405.96875 C 559.441406 404.972656 499.691406 434.023438 473.597656 447.003906 C 455.234375 452.453125 428.511719 480.859375 431.671875 503.976562 C 448.148438 536.355469 569.742188 653.015625 607.433594 657.972656 C 639.132812 654.015625 684.722656 572.027344 701.632812 549.984375 C 701.632812 549.984375 689.648438 537.25 689.648438 537.25 Z M 607.703125 646.988281 C 600.722656 661 436.582031 509.402344 442.398438 501.578125 C 438.617188 488.761719 467.386719 457.5625 475.957031 457.746094 C 514.207031 439.640625 561.085938 417.167969 568.296875 416.925781 C 579.371094 421.898438 635.347656 507.203125 686.800781 551.675781 C 654.457031 595.625 624.808594 644.554688 607.703125 646.988281 Z M 607.703125 646.988281 " fill-opacity="1" fill-rule="nonzero"/><path fill="#acb0c5" d="M 712.617188 537.097656 C 709.433594 531.550781 704.9375 526.851562 698.230469 523.613281 C 691.074219 520.160156 665.945312 516.757812 664.203125 509.28125 C 663.480469 506.160156 667.425781 498.859375 668.597656 496.019531 C 673.285156 484.660156 680.128906 469.039062 674.53125 456.863281 C 671.753906 450.832031 665.011719 446.082031 660.0625 441.855469 C 651.945312 434.917969 644.003906 427.804688 636.136719 420.585938 C 625.921875 411.742188 611.578125 419.382812 579.652344 433.648438 C 547.730469 447.910156 505.277344 472.226562 538.878906 530.550781 C 567.667969 579.992188 631.390625 631.882812 687.445312 606.882812 C 697.207031 602.527344 709.078125 597.527344 717.617188 591.261719 C 724.695312 586.070312 723.414062 577.214844 721.851562 569.363281 C 719.625 558.171875 717.980469 546.433594 712.617188 537.097656 Z M 712.617188 537.097656 " fill-opacity="1" fill-rule="nonzero"/><path fill="#221f1f" d="M 675.710938 476.628906 C 662.574219 455.847656 647.039062 435.027344 631.371094 438.222656 C 615.722656 441.421875 570.296875 476.269531 566.730469 493.105469 C 564.785156 516.449219 604.125 542.410156 622.605469 543.667969 C 640.171875 543.792969 688.542969 496.425781 675.710938 476.628906 Z M 622.75 530.417969 C 612.855469 530.402344 582.722656 510.519531 579.691406 495.851562 C 582.035156 485.902344 621.148438 453.246094 634.761719 451.140625 C 637.183594 450.179688 648.828125 457.898438 665.261719 484.894531 C 667.441406 488.746094 633.761719 531.511719 622.75 530.417969 Z M 622.75 530.417969 " fill-opacity="1" fill-rule="nonzero"/><path fill="#ffffff" d="M 800.015625 492.789062 C 799.980469 492.800781 799.945312 492.804688 799.910156 492.816406 C 799.910156 492.8125 799.910156 492.8125 799.910156 492.8125 C 800.082031 492.761719 800.117188 492.753906 800.015625 492.789062 Z M 800.015625 492.789062 " fill-opacity="1" fill-rule="nonzero"/><path stroke-linecap="round" transform="matrix(1.354921, 0.0154664, -0.0154664, 1.354921, 621.528774, 521.731225)" fill="none" stroke-linejoin="round" d="M 66.899202 12.379427 C 66.126645 9.609025 30.980003 -0.988456 29.897636 -3.622702 C 22.946801 -20.535811 57.846188 -34.882182 43.899582 -45.620754 C 40.409261 -48.311122 41.228252 -49.049872 37.585777 -51.683725 C 27.867662 -58.711122 18.847026 -66.767067 9.927973 -74.763627 C 2.315391 -81.203861 -8.205275 -75.444604 -31.641982 -64.648327 C -55.081572 -53.852018 -86.205226 -35.552898 -60.917478 7.207528 C -39.258875 43.450536 8.202595 81.203769 49.360668 62.282696 C 60.009394 57.386879 71.781721 51.160702 78.381094 41.072681 C 86.204639 29.119796 70.629295 25.719774 66.899202 12.379427 Z M 66.899202 12.379427 " stroke="#221f1f" stroke-width="8.5" stroke-opacity="1" stroke-miterlimit="4"/><path fill="#acb0c5" d="M 642.878906 524.132812 C 642.878906 524.132812 629.039062 498.355469 613.738281 522.917969 C 616.980469 548.574219 610.367188 580.496094 582.964844 581.953125 C 582.964844 581.953125 565.207031 569.425781 565.207031 569.425781 C 558.28125 583.238281 570.203125 622.246094 610.113281 608.566406 C 650.023438 594.886719 642.878906 524.132812 642.878906 524.132812 Z M 642.878906 524.132812 " fill-opacity="1" fill-rule="nonzero"/><path fill="#ffffff" d="M 592.992188 597.828125 C 623.714844 601.789062 632.761719 558.105469 631.433594 534.617188 C 631.503906 526.078125 618.191406 525.878906 618.183594 534.464844 C 618.667969 549.632812 612.9375 577.160156 596.660156 585.089844 C 588.527344 582.460938 584.890625 595.207031 592.992188 597.828125 Z M 592.992188 597.828125 " fill-opacity="1" fill-rule="nonzero"/><path fill="#221f1f" d="M 648.34375 523.582031 C 643.136719 507.5625 620.355469 497.367188 608.046875 521.671875 C 610.75 541.394531 608.660156 573.046875 584.5 576.3125 C 584.5 576.3125 563.160156 561.257812 563.160156 561.257812 C 533.554688 634.050781 661.761719 648.695312 648.34375 523.582031 Z M 608.332031 603.371094 C 586.796875 612.167969 568.875 598.144531 568.84375 578.710938 C 568.84375 578.710938 581.355469 587.535156 581.355469 587.535156 C 613.085938 586.289062 622.339844 555.753906 619.425781 524.257812 C 648.175781 492.835938 643.496094 595.496094 608.332031 603.371094 Z M 608.332031 603.371094 " fill-opacity="1" fill-rule="nonzero"/><path fill="#ffffff" d="M 661.703125 473.214844 C 655.472656 462.597656 668.082031 437.292969 683.839844 441.003906 C 683.839844 441.003906 701.222656 446.328125 690.742188 463.621094 C 680.265625 480.910156 683.832031 476.347656 680.265625 480.910156 C 676.695312 485.476562 666.457031 481.492188 661.703125 473.214844 Z M 661.703125 473.214844 " fill-opacity="1" fill-rule="nonzero"/><path fill="#221f1f" d="M 698.503906 447.40625 C 671.605469 405.101562 629.269531 482.769531 675.671875 488.320312 C 681.46875 488.738281 685.597656 483.921875 687.738281 479.660156 C 689.765625 475.867188 704.175781 455.070312 698.503906 447.40625 Z M 686.046875 460.773438 C 678.726562 472.535156 680.191406 471.609375 676.09375 477.332031 C 660.023438 476.230469 664.125 448.78125 680.824219 446.136719 C 687.890625 446.195312 690.835938 455.273438 686.046875 460.773438 Z M 686.046875 460.773438 " fill-opacity="1" fill-rule="nonzero"/><path fill="#acb0c5" d="M 652.976562 607.691406 C 603.855469 581.925781 640.929688 508.664062 667.644531 507.453125 C 694.363281 506.246094 711.796875 531.597656 711.796875 531.597656 C 711.796875 531.597656 718.523438 504.886719 733.75 505.035156 C 759.054688 505.28125 756.40625 568.335938 753.546875 582.714844 C 750.75 596.777344 723.113281 612.402344 701.480469 586.894531 C 696.328125 611.929688 672.695312 615.109375 652.976562 607.691406 Z M 652.976562 607.691406 " fill-opacity="1" fill-rule="nonzero"/><path fill="#ffffff" d="M 629.871094 556.890625 C 638.035156 595.550781 687.300781 615.273438 686.632812 552.542969 C 686.632812 552.542969 699.421875 557.835938 699.421875 557.835938 C 699.421875 557.835938 701.175781 521.515625 701.175781 521.515625 C 701.175781 521.515625 671.949219 491.945312 655.023438 512.632812 C 638.09375 533.320312 629.871094 556.890625 629.871094 556.890625 Z M 629.871094 556.890625 " fill-opacity="1" fill-rule="nonzero"/><path fill="#bd1e2c" d="M 702.769531 594.742188 C 670.800781 600.699219 636.570312 575.933594 633.632812 543.175781 C 633.632812 543.175781 640.902344 533.464844 640.902344 533.464844 C 642.917969 557.507812 676.835938 583.4375 700.191406 579.054688 C 700.191406 579.054688 702.769531 594.742188 702.769531 594.742188 Z M 702.769531 594.742188 " fill-opacity="1" fill-rule="nonzero"/><path fill="#ffffff" d="M 751.5 560.820312 C 745.90625 565.734375 719.042969 565.796875 720.820312 573.015625 C 726.699219 580.222656 748.703125 568.648438 756.132812 566.597656 C 761.113281 563.675781 754.4375 555.246094 751.5 560.820312 Z M 752.597656 560.375 C 752.554688 560.394531 752.511719 560.410156 752.46875 560.429688 C 752.46875 560.425781 752.46875 560.421875 752.472656 560.421875 C 752.683594 560.332031 752.726562 560.316406 752.597656 560.375 Z M 752.597656 560.375 " fill-opacity="1" fill-rule="nonzero"/><path fill="#ffffff" d="M 746.230469 541.796875 C 742.597656 543.289062 702.539062 550.839844 719.851562 557.148438 C 723.210938 554.503906 763.777344 548.402344 746.230469 541.796875 Z M 746.230469 541.796875 " fill-opacity="1" fill-rule="nonzero"/><path fill="#221f1f" d="M 749.332031 507.414062 C 736.050781 490.03125 714.25 504.890625 709.742188 520.71875 C 649.871094 456.113281 585.761719 577.496094 650.421875 612.554688 C 669.75 620.636719 694.960938 617.621094 703.957031 597.035156 C 720.976562 613.292969 753.933594 605.726562 758.933594 583.785156 C 761.117188 572.804688 764.265625 525.789062 749.332031 507.414062 Z M 719.261719 552.574219 C 722.863281 550.800781 740.09375 547.148438 749.1875 543.125 C 749.613281 547.734375 749.820312 552.4375 749.863281 556.964844 C 744.578125 560.554688 727.4375 561.449219 721.621094 565.230469 C 720.550781 561.09375 719.765625 556.816406 719.261719 552.574219 Z M 733.699219 510.527344 C 744.484375 512.230469 745.929688 524.574219 748.335938 536.078125 C 741.933594 537.824219 726.039062 541.726562 718.699219 545.789062 C 718.546875 530.304688 719.851562 513.851562 733.699219 510.527344 Z M 705.671875 583.34375 C 705.671875 583.34375 696.546875 570.121094 692.765625 556.15625 C 690.535156 546.824219 678.296875 548.738281 680.949219 558.84375 C 684.824219 573.160156 692.179688 584.289062 695.378906 588.675781 C 679.472656 627.105469 622.589844 596.863281 635.898438 554.695312 C 651.367188 493.996094 693.324219 510.394531 711.242188 540.476562 C 711.441406 560.183594 715.996094 581.367188 728.628906 594.96875 C 722.550781 595.226562 714.054688 593.226562 705.671875 583.34375 Z M 737.734375 592.714844 C 731.675781 589.894531 725.679688 578.714844 723.257812 570.761719 C 729.949219 572.332031 741.910156 567.261719 749.789062 564.1875 C 748.578125 578.121094 751.078125 585.777344 737.734375 592.714844 Z M 737.734375 592.714844 " fill-opacity="1" fill-rule="nonzero"/><path fill="#acb0c5" d="M 507.414062 484.277344 C 518.847656 544.304688 558.160156 576.257812 582.496094 560.769531 C 606.832031 545.285156 593.699219 519.320312 578.46875 510.054688 C 563.234375 500.792969 549.6875 476.589844 549.214844 469.289062 C 548.140625 452.644531 501.390625 452.65625 507.414062 484.277344 Z M 507.414062 484.277344 " fill-opacity="1" fill-rule="nonzero"/><path fill="#221f1f" d="M 581.320312 505.367188 C 567.425781 496.910156 555.03125 474.09375 554.695312 468.9375 C 554.320312 463.128906 550.445312 458.167969 544.058594 455.332031 C 461.359375 436.40625 521.113281 559.789062 553.898438 566.800781 C 599.800781 583.667969 618.054688 526.417969 581.320312 505.367188 Z M 579.546875 556.136719 C 549.097656 568.367188 523.152344 530.933594 512.804688 483.25 C 511.523438 476.511719 513.0625 471.363281 517.386719 467.9375 C 524.875 462.539062 539.664062 461.109375 543.734375 469.640625 C 544.308594 478.570312 558.496094 504.339844 575.613281 514.75 C 589.703125 522.878906 598.144531 545.980469 579.546875 556.136719 Z M 579.546875 556.136719 " fill-opacity="1" fill-rule="nonzero"/><path fill="#bd1e2c" d="M 620.511719 433.414062 C 611.714844 450.039062 583.585938 478.605469 579.652344 482.5625 C 574.636719 485.003906 538.503906 502.378906 519.925781 505.324219 C 510.363281 520.566406 522.4375 548.339844 522.4375 548.339844 C 522.4375 548.339844 587.054688 521.242188 580.5 483.75 C 613.855469 502.085938 660.40625 449.710938 660.40625 449.710938 C 660.40625 449.710938 638.03125 429.296875 620.511719 433.414062 Z M 620.511719 433.414062 " fill-opacity="1" fill-rule="nonzero"/><path fill="#f59790" d="M 612.339844 453.558594 C 609.238281 455.773438 608.519531 460.089844 610.738281 463.191406 C 612.957031 466.289062 617.269531 467.007812 620.367188 464.792969 C 623.472656 462.574219 624.1875 458.261719 621.972656 455.160156 C 619.753906 452.054688 615.441406 451.339844 612.339844 453.558594 Z M 612.339844 453.558594 " fill-opacity="1" fill-rule="nonzero"/><path fill="#f59790" d="M 639.8125 448.714844 C 636.714844 450.929688 635.996094 455.242188 638.210938 458.34375 C 640.429688 461.445312 644.742188 462.164062 647.84375 459.945312 C 650.945312 457.730469 651.660156 453.414062 649.441406 450.3125 C 647.226562 447.210938 642.914062 446.496094 639.8125 448.714844 Z M 639.8125 448.714844 " fill-opacity="1" fill-rule="nonzero"/><path fill="#f59790" d="M 628.445312 432.179688 C 625.34375 434.398438 624.625 438.710938 626.84375 441.8125 C 629.0625 444.914062 633.371094 445.628906 636.472656 443.414062 C 639.574219 441.195312 640.292969 436.882812 638.074219 433.78125 C 635.855469 430.679688 631.546875 429.960938 628.445312 432.179688 Z M 628.445312 432.179688 " fill-opacity="1" fill-rule="nonzero"/><path fill="#f59790" d="M 538.328125 514.953125 C 540.546875 518.054688 544.855469 518.773438 547.960938 516.554688 C 551.058594 514.339844 551.777344 510.027344 549.558594 506.925781 C 547.34375 503.820312 543.027344 503.105469 539.925781 505.324219 C 536.824219 507.539062 536.109375 511.851562 538.328125 514.953125 Z M 538.328125 514.953125 " fill-opacity="1" fill-rule="nonzero"/><path fill="#f59790" d="M 524.855469 539.382812 C 527.074219 542.480469 531.382812 543.199219 534.484375 540.984375 C 537.585938 538.765625 538.304688 534.453125 536.085938 531.351562 C 533.871094 528.25 529.554688 527.535156 526.453125 529.75 C 523.351562 531.96875 522.636719 536.28125 524.855469 539.382812 Z M 524.855469 539.382812 " fill-opacity="1" fill-rule="nonzero"/><path fill="#f59790" d="M 512.890625 523.273438 C 515.109375 526.375 519.417969 527.09375 522.519531 524.875 C 525.621094 522.660156 526.339844 518.347656 524.121094 515.246094 C 521.90625 512.140625 517.589844 511.425781 514.488281 513.644531 C 511.386719 515.859375 510.671875 520.171875 512.890625 523.273438 Z M 512.890625 523.273438 " fill-opacity="1" fill-rule="nonzero"/><path stroke-linecap="round" transform="matrix(1.354817, -0.0228442, 0.0228442, 1.354817, 585.443836, 488.731932)" fill="none" stroke-linejoin="round" d="M 26.56476 -40.382586 C 19.866721 -28.224496 -1.244945 -7.495405 -4.196766 -4.624465 C -7.928158 -2.885362 -34.80664 9.486036 -48.552033 11.428224 C -55.797819 22.556415 -47.233844 43.200585 -47.233844 43.200585 C -47.233844 43.200585 0.784149 24.009269 -3.586058 -3.737665 C 20.798713 10.207382 55.800057 -27.860798 55.800057 -27.860798 C 55.800057 -27.860798 39.5436 -43.202668 26.56476 -40.382586 Z M 26.56476 -40.382586 " stroke="#221f1f" stroke-width="5" stroke-opacity="1" stroke-miterlimit="4"/><path fill="#bd1e2c" d="M 573.792969 502.417969 C 571.035156 502.0625 568.441406 501.332031 565.992188 500.292969 C 550.644531 528.226562 571.347656 547.953125 571.347656 547.953125 C 571.347656 547.953125 588.378906 522.457031 580.539062 502.992188 C 578.3125 503.050781 576.066406 502.882812 573.792969 502.417969 Z M 573.792969 502.417969 " fill-opacity="1" fill-rule="nonzero"/><path fill="#e04f4b" d="M 565.992188 500.292969 C 550.644531 528.226562 571.351562 547.953125 571.351562 547.953125 C 571.351562 547.953125 568.441406 501.332031 565.992188 500.292969 Z M 565.992188 500.292969 " fill-opacity="1" fill-rule="nonzero"/><path fill="#f59790" d="M 576.742188 512.898438 C 578.960938 516 578.242188 520.308594 575.140625 522.527344 C 572.039062 524.746094 567.726562 524.027344 565.507812 520.925781 C 563.292969 517.824219 564.007812 513.511719 567.109375 511.292969 C 570.210938 509.078125 574.523438 509.796875 576.742188 512.898438 Z M 576.742188 512.898438 " fill-opacity="1" fill-rule="nonzero"/><path stroke-linecap="round" transform="matrix(1.354817, -0.0228442, 0.0228442, 1.354817, 569.48926, 524.10878)" fill="none" stroke-linejoin="round" d="M 3.445572 -15.952042 C 1.415013 -16.248655 -0.489819 -16.819937 -2.284163 -17.617132 C -13.956707 2.804033 1.074633 17.617798 1.074633 17.617798 C 1.074633 17.617798 13.959168 -0.983795 8.416352 -15.444393 C 6.772649 -15.42886 5.117352 -15.580749 3.445572 -15.952042 Z M 3.445572 -15.952042 " stroke="#221f1f" stroke-width="5" stroke-opacity="1" stroke-miterlimit="4"/><path fill="#bd1e2c" d="M 598.835938 474.488281 C 599.269531 478.722656 598.949219 483.035156 598.003906 487.222656 C 613.453125 502.792969 644.972656 494.425781 644.972656 494.425781 C 644.972656 494.425781 632.308594 466.925781 598.835938 474.488281 Z M 598.835938 474.488281 " fill-opacity="1" fill-rule="nonzero"/><path fill="#e04f4b" d="M 602.035156 474.523438 C 633.433594 469.042969 645.398438 495.015625 645.398438 495.015625 C 645.398438 495.015625 602.226562 477.183594 602.035156 474.523438 Z M 602.035156 474.523438 " fill-opacity="1" fill-rule="nonzero"/><path fill="#f59790" d="M 612.304688 480.332031 C 609.203125 482.550781 608.484375 486.863281 610.703125 489.964844 C 612.917969 493.066406 617.230469 493.785156 620.332031 491.566406 C 623.433594 489.347656 624.152344 485.035156 621.933594 481.933594 C 619.714844 478.832031 615.40625 478.117188 612.304688 480.332031 Z M 612.304688 480.332031 " fill-opacity="1" fill-rule="nonzero"/><path stroke-linecap="round" transform="matrix(1.354817, -0.0228442, 0.0228442, 1.354817, 621.389434, 484.884174)" fill="none" stroke-linejoin="round" d="M -16.512816 -7.951712 C -16.245553 -4.821784 -16.535567 -1.643587 -17.285212 1.434596 C -6.079002 13.116106 17.283277 7.334149 17.283277 7.334149 C 17.283277 7.334149 8.280656 -13.115592 -16.512816 -7.951712 Z M -16.512816 -7.951712 " stroke="#221f1f" stroke-width="5" stroke-opacity="1" stroke-miterlimit="4"/><path fill="#bd1e2c" d="M 596.507812 474.164062 C 601.484375 481.125 598.746094 491.609375 590.390625 497.582031 C 582.035156 503.554688 571.226562 502.753906 566.25 495.792969 C 561.273438 488.832031 591.53125 467.199219 596.507812 474.164062 Z M 596.507812 474.164062 " fill-opacity="1" fill-rule="nonzero"/><path fill="#f59790" d="M 590.316406 497.792969 C 593.417969 495.574219 594.132812 491.261719 591.917969 488.160156 C 589.699219 485.058594 585.386719 484.34375 582.285156 486.558594 C 579.183594 488.777344 578.464844 493.089844 580.683594 496.191406 C 582.902344 499.292969 587.214844 500.011719 590.316406 497.792969 Z M 590.316406 497.792969 " fill-opacity="1" fill-rule="nonzero"/><path stroke-linecap="round" transform="matrix(1.354817, -0.0228442, 0.0228442, 1.354817, 581.386961, 485.469205)" fill="none" stroke-linejoin="round" d="M 11.298293 -8.153899 C 14.883877 -2.955524 12.732859 4.746797 6.49307 9.050045 C 0.253281 13.353292 -7.712387 12.627917 -11.29797 7.429542 C -14.883554 2.231167 7.712758 -13.355157 11.298293 -8.153899 Z M 11.298293 -8.153899 " stroke="#221f1f" stroke-width="5" stroke-opacity="1" stroke-miterlimit="4"/><path fill="#acb0c5" d="M 646.503906 433.480469 C 658.835938 403.835938 680.332031 407.507812 694.183594 426.570312 C 708.035156 445.628906 707.386719 470.292969 680.265625 473.113281 C 668.015625 474.386719 646.988281 460.867188 646.503906 433.480469 Z M 646.503906 433.480469 " fill-opacity="1" fill-rule="nonzero"/><path fill="#ffffff" d="M 685.105469 459.863281 C 689.277344 459.425781 700.089844 453.210938 703.054688 451.84375 C 703.335938 443.8125 700.085938 434.683594 694.1875 426.570312 C 684.222656 412.855469 670.296875 407.109375 658.679688 416 C 653.371094 440.648438 673.011719 461.117188 685.105469 459.863281 Z M 685.105469 459.863281 " fill-opacity="1" fill-rule="nonzero"/><path fill="#221f1f" d="M 698.628906 423.339844 C 679.324219 398.972656 655.453125 398.585938 640.992188 432.429688 C 640.960938 447.082031 646.519531 460.46875 656.589844 469.320312 C 691.886719 497.660156 725.882812 456.378906 698.628906 423.339844 Z M 696.183594 458.0625 C 696.078125 458.226562 695.960938 458.371094 695.855469 458.53125 C 693.378906 448.796875 683.179688 435.765625 682.941406 445.367188 C 685.277344 448.742188 687.621094 454.503906 687.808594 458.363281 C 687.921875 459.742188 687.34375 463.210938 688.398438 465.441406 C 685.628906 466.90625 682.640625 467.578125 679.601562 467.546875 C 679.636719 467.4375 679.691406 467.34375 679.722656 467.230469 C 681.332031 459.773438 678.339844 450.351562 671.308594 446.703125 C 662.179688 442.519531 668.144531 451.539062 670.214844 456.46875 C 671.234375 458.863281 671.210938 462.765625 670.808594 465.558594 C 660.75 461.101562 652.15625 449.546875 652.03125 434.527344 C 665.984375 395.015625 704.984375 434.113281 696.183594 458.0625 Z M 696.183594 458.0625 " fill-opacity="1" fill-rule="nonzero"/><path fill="#acb0c5" d="M 556.945312 537.035156 C 550.503906 505.582031 570.359375 496.550781 592.523438 504.546875 C 614.6875 512.542969 627.996094 533.316406 607.136719 550.875 C 597.714844 558.804688 572.722656 559.425781 556.945312 537.035156 Z M 556.945312 537.035156 " fill-opacity="1" fill-rule="nonzero"/><path fill="#ffffff" d="M 603.699219 537.195312 C 606.910156 534.492188 612.367188 523.28125 614.054688 520.480469 C 609.78125 513.679688 601.960938 507.949219 592.523438 504.546875 C 576.578125 498.792969 561.832031 501.851562 557.207031 515.734375 C 566.652344 539.113281 594.398438 545.023438 603.699219 537.195312 Z M 603.699219 537.195312 " fill-opacity="1" fill-rule="nonzero"/><path fill="#221f1f" d="M 622.671875 527.550781 C 613.914062 489.417969 537.785156 479.816406 551.566406 538.136719 C 568.828125 572.371094 626.832031 567.339844 622.671875 527.550781 Z M 603.601562 546.671875 C 603.566406 546.703125 603.519531 546.730469 603.484375 546.757812 C 600.945312 539.425781 592.839844 533.128906 584.898438 534.050781 C 571.789062 536.203125 594.210938 542.414062 595.148438 550.0625 C 576.136719 554.570312 548.382812 530.816406 566.597656 510.957031 C 578.210938 500.148438 611.328125 515.28125 611.921875 530.125 C 604.4375 523.425781 588.558594 518.308594 593.773438 526.417969 C 601.183594 528.839844 604.578125 534.566406 609.585938 539.980469 C 608.179688 542.25 606.199219 544.484375 603.601562 546.671875 Z M 603.601562 546.671875 " fill-opacity="1" fill-rule="nonzero"/><path fill="#6c7080" d="M 495.070312 273.464844 C 429.511719 285.832031 386.386719 349.003906 398.753906 414.5625 C 411.117188 480.125 474.289062 523.246094 539.851562 510.882812 C 605.410156 498.515625 648.53125 435.34375 636.167969 369.785156 C 623.800781 304.222656 560.632812 261.097656 495.070312 273.464844 Z M 495.070312 273.464844 " fill-opacity="1" fill-rule="nonzero"/><path fill="#736c5e" d="M 438.457031 421.503906 C 420.875 402.496094 393.835938 372.390625 405.320312 362.296875 C 414.484375 354.238281 450.167969 346.460938 463.21875 351.179688 C 469.765625 342.816406 477.628906 335.082031 486.773438 328.351562 C 492.285156 324.296875 503.238281 316.949219 509.089844 313.972656 C 506.851562 292.964844 522.480469 273.570312 531.082031 268.851562 C 540.660156 263.59375 558.6875 297.839844 564.585938 302.691406 C 564.585938 302.691406 599.683594 306.21875 620.441406 334.421875 C 649.390625 373.761719 635.339844 433.269531 589.054688 467.332031 C 542.765625 501.394531 481.773438 497.117188 452.820312 457.773438 C 444.820312 446.90625 440.117188 434.488281 438.457031 421.503906 Z M 438.457031 421.503906 " fill-opacity="1" fill-rule="nonzero"/><path fill="#49463a" d="M 540.609375 448.554688 C 589.191406 445.59375 625.46875 420.332031 633.34375 362.519531 C 641.742188 398.472656 625.261719 440.6875 589.054688 467.335938 C 542.765625 501.398438 482.335938 496.695312 452.820312 457.773438 C 448.429688 451.988281 437.210938 432.558594 437.292969 422.359375 C 346.210938 338.140625 464.753906 354.53125 464.753906 354.53125 C 464.753906 354.53125 483.46875 328.820312 512.171875 313.871094 C 509.773438 297.636719 526.699219 230.164062 561.523438 304.066406 C 569.203125 305.089844 577.128906 307.398438 585.226562 311.328125 C 585.417969 314.6875 527.34375 308.566406 484.449219 358.292969 C 467.660156 377.757812 466.296875 406.746094 482.507812 426.695312 C 493.753906 440.539062 511.796875 450.316406 540.609375 448.554688 Z M 540.609375 448.554688 " fill-opacity="1" fill-rule="nonzero"/><path fill="#fffffb" d="M 582.980469 373.042969 C 611.539062 366.371094 618.207031 334.546875 618.207031 334.546875 C 618.207031 334.546875 676.027344 399.59375 585.324219 464.699219 C 551.871094 488.710938 505.523438 509.332031 459.964844 469.351562 C 491.679688 464.535156 511.355469 449.957031 530.035156 396.71875 C 541.175781 364.960938 562.789062 377.757812 582.980469 373.042969 Z M 582.980469 373.042969 " fill-opacity="1" fill-rule="nonzero"/><path fill="#f0e7dc" d="M 459.960938 469.351562 C 505.523438 509.332031 551.871094 488.710938 585.320312 464.699219 C 647.417969 420.128906 639.902344 375.589844 628.988281 351.925781 C 628.820312 351.761719 585.320312 464.699219 506.339844 444.011719 C 490.3125 462.785156 470.359375 467.773438 459.960938 469.351562 Z M 459.960938 469.351562 " fill-opacity="1" fill-rule="nonzero"/><path fill="#221f1f" d="M 514.109375 497.234375 C 488.667969 497.664062 466.15625 487.601562 451.082031 467.121094 C 443.238281 456.460938 434.425781 438.828125 432.105469 424.839844 C 413.992188 405.195312 395.183594 383.289062 395.929688 368.808594 C 396.136719 364.875 397.722656 361.492188 400.527344 359.027344 C 410.203125 350.523438 443.054688 342.707031 459.996094 345.835938 C 466.523438 337.980469 474.03125 330.90625 482.355469 324.78125 C 487.1875 321.226562 495.917969 315.328125 502.21875 311.695312 C 501.671875 288.972656 518.132812 269.910156 527.273438 264.890625 C 529.054688 263.917969 531.996094 263 535.910156 264.167969 C 548.28125 267.871094 562.78125 291.453125 567.042969 298.796875 C 576.191406 301.269531 608.628906 311.542969 627.550781 337.253906 C 656.554688 376.667969 640.527344 430.894531 588.578125 469.125 C 563.628906 487.484375 537.617188 496.835938 514.109375 497.234375 Z M 450.425781 356.070312 C 435.863281 356.316406 413.789062 361.992188 407.78125 367.277344 C 407.363281 367.644531 406.964844 368.15625 406.902344 369.375 C 406.3125 380.777344 431.75 408.277344 441.324219 418.628906 C 441.324219 418.628906 442.519531 419.917969 442.519531 419.917969 C 442.519531 419.917969 442.742188 421.664062 442.742188 421.664062 C 444.308594 433.917969 452.765625 450.875 459.929688 460.609375 C 485.097656 494.804688 535.324219 494.671875 582.066406 460.277344 C 628.804688 425.878906 643.871094 377.96875 618.703125 343.765625 C 599.386719 317.515625 562.589844 308.988281 562.21875 308.90625 C 562.21875 308.90625 559.753906 308.351562 559.753906 308.351562 C 559.753906 308.351562 558.570312 306.121094 558.570312 306.121094 C 551.402344 292.605469 537.257812 274.703125 532.414062 274.601562 C 524.882812 278.867188 511.496094 296.511719 513.386719 314.25 C 513.386719 314.25 513.785156 318.011719 513.785156 318.011719 C 513.785156 318.011719 510.414062 319.726562 510.414062 319.726562 C 504.867188 322.546875 494.152344 329.738281 488.863281 333.628906 C 480.363281 339.886719 472.796875 347.21875 466.378906 355.421875 C 466.378906 355.421875 463.929688 358.554688 463.929688 358.554688 C 463.929688 358.554688 460.1875 357.199219 460.1875 357.199219 C 457.808594 356.34375 454.398438 356.003906 450.425781 356.070312 Z M 450.425781 356.070312 " fill-opacity="1" fill-rule="nonzero"/><path fill="#f3bc5f" d="M 438.910156 390.304688 C 438.910156 390.304688 452.570312 370.257812 452.570312 370.257812 C 452.570312 370.257812 439.785156 372.21875 439.785156 372.21875 C 439.785156 372.21875 449.78125 359.625 464.609375 360.496094 C 446.601562 357.46875 423.011719 362.421875 422.792969 367.648438 C 422.570312 372.875 423.503906 389.777344 445.292969 413.363281 C 445.292969 413.363281 445.839844 401.148438 449.761719 387.648438 C 449.761719 387.648438 438.910156 390.304688 438.910156 390.304688 Z M 438.910156 390.304688 " fill-opacity="1" fill-rule="nonzero"/><path fill="#f3bc5f" d="M 546.027344 301.972656 C 546.027344 301.972656 528.105469 308.574219 528.105469 308.574219 C 528.105469 308.574219 533.015625 299.464844 533.015625 299.464844 C 533.015625 299.464844 521.371094 304.65625 517.898438 315.773438 C 520.726562 301.929688 530.726562 285.351562 534.476562 286.101562 C 538.226562 286.847656 549.898438 290.492188 560.539062 310.714844 C 560.539062 310.714844 551.765625 308.988281 541.160156 309.53125 C 541.160156 309.53125 546.027344 301.972656 546.027344 301.972656 Z M 546.027344 301.972656 " fill-opacity="1" fill-rule="nonzero"/><path fill="#f3bc5f" d="M 530.035156 396.71875 C 529.003906 399.652344 527.96875 402.449219 526.933594 405.152344 C 529.128906 405.15625 531.300781 405.039062 533.449219 404.699219 C 546.242188 402.96875 558.117188 394.222656 563.578125 382.53125 C 564.871094 379.910156 565.824219 377.144531 566.570312 374.253906 C 551.894531 374.097656 538.171875 373.523438 530.035156 396.71875 Z M 530.035156 396.71875 " fill-opacity="1" fill-rule="nonzero"/><path fill="#f0e7dc" d="M 631.597656 290.5 C 643.375 302.757812 646.785156 318.585938 639.222656 325.851562 C 631.660156 333.117188 621.953125 326.949219 610.179688 314.691406 C 598.402344 302.429688 589.015625 288.722656 596.582031 281.457031 C 604.144531 274.191406 619.824219 278.238281 631.597656 290.5 Z M 631.597656 290.5 " fill-opacity="1" fill-rule="nonzero"/><path fill="#221f1f" d="M 635.5625 286.695312 C 607.210938 256.214844 568.179688 274.875 610.179688 314.691406 C 637.605469 350.078125 668.101562 322.386719 635.5625 286.695312 Z M 635.421875 321.890625 C 633.75 323.492188 629.847656 327.238281 614.140625 310.886719 C 566.300781 258.15625 653.070312 291.894531 635.421875 321.890625 Z M 635.421875 321.890625 " fill-opacity="1" fill-rule="nonzero"/><path fill="#ffffff" d="M 499.660156 256.226562 C 428.667969 269.617188 381.972656 338.027344 395.363281 409.019531 C 408.75 480.015625 477.160156 526.710938 548.152344 513.320312 C 619.148438 499.929688 665.84375 431.523438 652.453125 360.53125 C 639.0625 289.535156 570.65625 242.835938 499.660156 256.226562 Z M 549.113281 477.578125 C 493.152344 488.132812 439.230469 451.328125 428.675781 395.367188 C 418.121094 339.40625 454.929688 285.484375 510.890625 274.929688 C 566.847656 264.375 620.769531 301.183594 631.324219 357.144531 C 641.878906 413.105469 605.070312 467.023438 549.113281 477.578125 Z M 549.113281 477.578125 " fill-opacity="1" fill-rule="nonzero"/><path fill="#acb0c5" d="M 542.980469 485.886719 C 476.621094 498.402344 412.53125 458.414062 393.511719 395.164062 C 393.882812 399.761719 394.488281 404.382812 395.363281 409.019531 C 408.753906 480.011719 477.160156 526.710938 548.15625 513.320312 C 619.148438 499.929688 665.84375 431.523438 652.453125 360.527344 C 651.582031 355.894531 650.460938 351.367188 649.132812 346.953125 C 654.457031 412.785156 609.339844 473.371094 542.980469 485.886719 Z M 542.980469 485.886719 " fill-opacity="1" fill-rule="nonzero"/><path fill="#221f1f" d="M 509.871094 269.535156 C 451.027344 280.632812 412.179688 337.539062 423.28125 396.382812 C 433.21875 449.074219 479.878906 485.730469 531.777344 484.855469 C 537.839844 484.753906 543.976562 484.140625 550.132812 482.976562 C 608.976562 471.878906 647.820312 414.96875 636.722656 356.125 C 625.625 297.28125 568.722656 258.433594 509.871094 269.535156 Z M 548.09375 472.183594 C 542.558594 473.226562 537.050781 473.78125 531.59375 473.871094 C 484.953125 474.652344 443.007812 441.707031 434.074219 394.347656 C 424.097656 341.453125 459.015625 290.304688 511.910156 280.328125 C 517.445312 279.285156 522.953125 278.734375 528.40625 278.640625 C 575.050781 277.855469 616.996094 310.804688 625.929688 358.164062 C 635.90625 411.054688 600.988281 462.207031 548.09375 472.183594 Z M 548.09375 472.183594 " fill-opacity="1" fill-rule="nonzero"/><path fill="#221f1f" d="M 657.851562 359.511719 C 651.105469 323.734375 630.828125 292.722656 600.753906 272.199219 C 570.6875 251.667969 534.429688 244.085938 498.644531 250.828125 C 462.867188 257.578125 431.859375 277.855469 411.332031 307.925781 C 390.804688 337.992188 383.21875 374.257812 389.964844 410.035156 C 396.714844 445.8125 416.988281 476.824219 447.0625 497.347656 C 470.617188 513.429688 497.96875 521.570312 525.917969 521.097656 C 533.644531 520.964844 541.421875 520.175781 549.171875 518.71875 C 584.949219 511.96875 615.957031 491.691406 636.484375 461.621094 C 657.011719 431.550781 664.601562 395.289062 657.851562 359.511719 Z M 627.410156 455.429688 C 608.539062 483.074219 580.03125 501.71875 547.136719 507.921875 C 514.246094 514.132812 480.902344 507.148438 453.253906 488.277344 C 425.605469 469.402344 406.964844 440.894531 400.761719 408 C 394.554688 375.105469 401.535156 341.765625 420.40625 314.117188 C 439.277344 286.46875 467.785156 267.828125 500.679688 261.625 C 507.808594 260.28125 514.957031 259.554688 522.0625 259.433594 C 547.757812 259 572.90625 266.488281 594.5625 281.269531 C 622.210938 300.144531 640.851562 328.652344 647.058594 361.546875 C 653.261719 394.441406 646.285156 427.78125 627.410156 455.429688 Z M 627.410156 455.429688 " fill-opacity="1" fill-rule="nonzero"/><path fill="#ffffff" d="M 469.671875 471.214844 C 483.28125 481.402344 489.222656 496.464844 482.9375 504.863281 C 476.652344 513.257812 460.527344 511.8125 446.917969 501.625 C 433.304688 491.441406 427.367188 476.378906 433.652344 467.980469 C 439.9375 459.582031 456.0625 461.03125 469.671875 471.214844 Z M 469.671875 471.214844 " fill-opacity="1" fill-rule="nonzero"/><path fill="#acb0c5" d="M 459.023438 484.570312 C 468.046875 491.324219 473.679688 499.046875 471.601562 501.824219 C 469.527344 504.597656 460.527344 501.375 451.503906 494.621094 C 442.476562 487.867188 436.84375 480.144531 438.921875 477.367188 C 440.996094 474.59375 449.996094 477.816406 459.023438 484.570312 Z M 459.023438 484.570312 " fill-opacity="1" fill-rule="nonzero"/><path fill="#221f1f" d="M 488.875 486.691406 C 483.414062 472.058594 464.988281 458.269531 449.40625 457.160156 C 416.921875 454.425781 422.050781 493.195312 443.628906 506.023438 C 461.828125 523.027344 500.640625 517.222656 488.875 486.691406 Z M 478.539062 501.570312 C 465.972656 512.109375 442.789062 495.039062 437.933594 482.121094 C 430.761719 462.34375 456.734375 466.871094 466.382812 475.613281 C 474.277344 481.652344 483.382812 492.835938 478.539062 501.570312 Z M 478.539062 501.570312 " fill-opacity="1" fill-rule="nonzero"/><path fill="#ffffff" d="M 466.320312 319.980469 C 475.722656 322.25 480.21875 337.066406 476.355469 353.078125 C 472.496094 369.09375 461.742188 380.234375 452.335938 377.96875 C 442.933594 375.699219 438.4375 360.878906 442.300781 344.867188 C 446.160156 328.855469 456.917969 317.710938 466.320312 319.980469 Z M 466.320312 319.980469 " fill-opacity="1" fill-rule="nonzero"/><path fill="#ffffff" d="M 594.808594 319.199219 C 565.238281 293.257812 524.558594 278.035156 486.898438 295.292969 C 469.859375 303.714844 486.453125 329.214844 501.136719 316.757812 C 528.429688 293.914062 565.503906 306.382812 592.53125 322.535156 C 594.792969 323.882812 596.789062 320.851562 594.808594 319.199219 Z M 594.808594 319.199219 " fill-opacity="1" fill-rule="nonzero"/><path fill="#f0e7dc" d="M 541.378906 420.867188 C 548.636719 422.84375 558.449219 412.214844 554.515625 397.027344 C 554.515625 397.027344 571.601562 405.375 580.453125 392.40625 C 580.453125 392.40625 580.449219 432.328125 541.378906 420.867188 Z M 541.378906 420.867188 " fill-opacity="1" fill-rule="nonzero"/><path fill="#2b1c13" d="M 559.417969 374.910156 C 564.320312 381.105469 562.125 391.011719 554.515625 397.027344 C 546.910156 403.046875 536.765625 402.902344 531.863281 396.703125 C 526.960938 390.503906 554.515625 368.710938 559.417969 374.910156 Z M 559.417969 374.910156 " fill-opacity="1" fill-rule="nonzero"/><path fill="#6c534b" d="M 554.070312 377.105469 C 556.085938 379.65625 553.503906 385.058594 548.304688 389.171875 C 543.101562 393.289062 537.25 394.554688 535.234375 392.003906 C 533.21875 389.457031 552.054688 374.558594 554.070312 377.105469 Z M 554.070312 377.105469 " fill-opacity="1" fill-rule="nonzero"/><path fill="#221f1f" d="M 551.40625 409.578125 C 551.390625 409.628906 551.386719 409.644531 551.390625 409.632812 C 551.394531 409.613281 551.402344 409.59375 551.40625 409.578125 Z M 551.40625 409.578125 " fill-opacity="1" fill-rule="nonzero"/><path fill="#221f1f" d="M 581.839844 375.222656 C 575.785156 371.226562 575.097656 379.171875 578.617188 382.6875 C 582.355469 394.175781 566.660156 401.050781 556.875 393.902344 C 546.765625 391.421875 553.390625 404.40625 551.40625 409.578125 C 551.417969 409.527344 551.429688 409.476562 551.464844 409.34375 C 550.835938 412.3125 549.078125 415.3125 546.53125 416.871094 C 543.96875 418.523438 540.765625 418.96875 537.8125 418.316406 C 537.453125 418.382812 532.964844 416.414062 532.199219 414.484375 C 529.457031 411.210938 524.402344 415.578125 527.199219 418.832031 C 539.347656 434.25 562.691406 419.414062 558.171875 401.597656 C 574.636719 410.289062 594.308594 390.488281 581.839844 375.222656 Z M 581.839844 375.222656 " fill-opacity="1" fill-rule="nonzero"/><path fill="#221f1f" d="M 510.828125 402.855469 C 515.738281 408.316406 506.792969 417.804688 500.664062 411.65625 C 497.71875 406.644531 490.441406 410.410156 493.5625 415.558594 C 501.074219 426.308594 519.402344 421.253906 520.035156 408.085938 C 520.636719 392.566406 507.101562 394.859375 510.828125 402.855469 Z M 505.125 413.613281 C 505.1875 413.613281 505.257812 413.609375 505.359375 413.609375 C 505.324219 413.625 505.234375 413.625 505.125 413.613281 Z M 505.125 413.613281 " fill-opacity="1" fill-rule="nonzero"/><path fill="#221f1f" d="M 578.246094 353.242188 C 583.15625 358.703125 574.210938 368.191406 568.085938 362.042969 C 565.136719 357.027344 557.863281 360.796875 560.980469 365.945312 C 568.496094 376.695312 586.824219 371.640625 587.453125 358.472656 C 588.054688 342.953125 574.519531 345.246094 578.246094 353.242188 Z M 572.542969 364 C 572.605469 363.996094 572.675781 363.996094 572.777344 363.996094 C 572.742188 364.011719 572.65625 364.007812 572.542969 364 Z M 572.542969 364 " fill-opacity="1" fill-rule="nonzero"/><path fill="#f3bc5f" d="M 534.652344 341.867188 C 535.714844 346.8125 542.742188 349.496094 550.347656 347.863281 C 557.957031 346.230469 563.261719 340.902344 562.203125 335.957031 C 561.140625 331.011719 554.113281 328.328125 546.503906 329.960938 C 538.898438 331.59375 533.589844 336.921875 534.652344 341.867188 Z M 534.652344 341.867188 " fill-opacity="1" fill-rule="nonzero"/><path fill="#f3bc5f" d="M 496.222656 370.148438 C 500.628906 372.632812 501.101562 380.140625 497.28125 386.917969 C 493.460938 393.695312 486.792969 397.175781 482.386719 394.691406 C 477.980469 392.207031 477.503906 384.699219 481.324219 377.921875 C 485.148438 371.144531 491.816406 367.664062 496.222656 370.148438 Z M 496.222656 370.148438 " fill-opacity="1" fill-rule="nonzero"/></svg>