<?xml version="1.0" encoding="UTF-8" standalone="no"?>
<!-- Created with Inkscape (http://www.inkscape.org/) -->

<svg
   version="1.1"
   id="svg2"
   width="802.66669"
   height="802.66669"
   viewBox="0 0 802.66669 802.66669"
   sodipodi:docname="the-vector-converter-1280-IEuJDIkvXxnVCUzF.eps"
   xmlns:inkscape="http://www.inkscape.org/namespaces/inkscape"
   xmlns:sodipodi="http://sodipodi.sourceforge.net/DTD/sodipodi-0.dtd"
   xmlns="http://www.w3.org/2000/svg"
   xmlns:svg="http://www.w3.org/2000/svg">
  <defs
     id="defs6" />
  <sodipodi:namedview
     id="namedview4"
     pagecolor="#ffffff"
     bordercolor="#000000"
     borderopacity="0.25"
     inkscape:showpageshadow="2"
     inkscape:pageopacity="0.0"
     inkscape:pagecheckerboard="0"
     inkscape:deskcolor="#d1d1d1" />
  <g
     id="g8"
     inkscape:groupmode="layer"
     inkscape:label="ink_ext_XXXXXX"
     transform="matrix(1.3333333,0,0,-1.3333333,0,802.66667)">
    <g
       id="g10"
       transform="scale(0.1)">
      <path
         d="M 552.59,4186.27 V 1834.23 c 0,-150.18 80.254,-289.03 210.242,-363.87 L 2799.76,294.098 c 129.99,-74.84 290.01,-74.84 419.99,0 L 5256.68,1470.36 c 129.98,74.84 210.24,213.69 210.24,363.86 v 2352.05 c 0,150.17 -80.26,289.02 -210.24,363.86 L 3219.75,5726.4 c -129.99,74.84 -290.01,74.84 -419.99,0 L 762.336,4550.13 C 632.352,4475.29 552.59,4336.44 552.59,4186.27"
         style="fill:#213147;fill-opacity:1;fill-rule:nonzero;stroke:none"
         id="path12" />
      <path
         d="m 3454.11,2554.07 -290.49,-796.66 c -7.88,-22.15 -7.88,-46.28 0,-68.43 L 3663.37,318.223 4241.41,652.047 3547.66,2554.07 c -15.75,43.82 -77.79,43.82 -93.55,0"
         style="fill:#12aaff;fill-opacity:1;fill-rule:nonzero;stroke:none"
         id="path14" />
      <path
         d="m 4036.59,3893.8 c -15.76,43.82 -77.8,43.82 -93.55,0 l -290.5,-796.65 c -7.88,-22.16 -7.88,-46.28 0,-68.44 L 4471.35,784.492 5049.39,1118.32 4036.59,3893.8"
         style="fill:#12aaff;fill-opacity:1;fill-rule:nonzero;stroke:none"
         id="path16" />
      <path
         d="m 3009.51,5638.26 c 14.28,0 28.55,-3.94 41.36,-10.83 L 5255.2,4354.66 c 25.6,-14.77 41.36,-42.35 41.36,-71.4 V 1738.21 c 0,-29.54 -15.76,-56.62 -41.36,-71.39 L 3050.87,394.047 c -12.32,-7.387 -27.08,-10.832 -41.36,-10.832 -14.28,0 -28.56,3.941 -41.37,10.832 L 763.816,1665.84 c -25.605,14.77 -41.363,42.34 -41.363,71.39 v 2545.54 c 0,29.55 15.758,56.63 41.363,71.39 L 2968.14,5626.94 c 12.81,7.38 27.09,11.32 41.37,11.32 z m 0,371.74 c -78.29,0 -157.07,-20.19 -227.47,-61.05 L 578.191,4676.66 C 437.375,4595.43 350.719,4445.25 350.719,4282.77 V 1737.72 c 0,-162.49 86.656,-312.65 227.472,-393.9 L 2782.52,71.0508 C 2852.93,30.6797 2931.22,9.99609 3010,9.99609 c 78.29,0 157.06,20.18751 227.47,61.05471 L 5441.8,1343.82 c 140.82,81.24 227.47,231.41 227.47,393.9 l 0.01,2545.05 c 0,162.49 -86.65,312.66 -227.47,393.9 L 3236.98,5948.95 c -70.41,40.86 -149.19,61.05 -227.47,61.05 v 0"
         style="fill:#9dcced;fill-opacity:1;fill-rule:nonzero;stroke:none"
         id="path18" />
      <path
         d="M 1551.6,781.539 1754.46,1336.93 2162.63,997.691 1781.05,649.094 1551.6,781.539"
         style="fill:#213147;fill-opacity:1;fill-rule:nonzero;stroke:none"
         id="path20" />
      <path
         d="m 2823.88,4464.95 h -558.83 c -41.85,0 -79.28,-26.1 -93.56,-65.49 L 973.563,1115.37 1551.6,781.539 2870.66,4397.99 c 12.31,32.49 -11.82,66.96 -46.78,66.96"
         style="fill:#ffffff;fill-opacity:1;fill-rule:nonzero;stroke:none"
         id="path22" />
      <path
         d="m 3801.73,4464.95 h -558.84 c -41.85,0 -79.27,-26.1 -93.55,-65.49 L 1781.54,649.586 2359.58,315.762 3848.5,4397.99 c 11.82,32.49 -12.31,66.96 -46.77,66.96"
         style="fill:#ffffff;fill-opacity:1;fill-rule:nonzero;stroke:none"
         id="path24" />
    </g>
  </g>
</svg>
