<?xml version="1.0" encoding="UTF-8" standalone="no"?>
<!-- Created with Inkscape (http://www.inkscape.org/) -->

<svg
   version="1.1"
   id="svg2"
   width="3333.3333"
   height="3333.3333"
   viewBox="0 0 3333.3333 3333.3333"
   sodipodi:docname="the-vector-converter-1280-sraoofQNYzDmIYeq.eps"
   xmlns:inkscape="http://www.inkscape.org/namespaces/inkscape"
   xmlns:sodipodi="http://sodipodi.sourceforge.net/DTD/sodipodi-0.dtd"
   xmlns="http://www.w3.org/2000/svg"
   xmlns:svg="http://www.w3.org/2000/svg">
  <defs
     id="defs6" />
  <sodipodi:namedview
     id="namedview4"
     pagecolor="#ffffff"
     bordercolor="#000000"
     borderopacity="0.25"
     inkscape:showpageshadow="2"
     inkscape:pageopacity="0.0"
     inkscape:pagecheckerboard="0"
     inkscape:deskcolor="#d1d1d1" />
  <g
     id="g8"
     inkscape:groupmode="layer"
     inkscape:label="ink_ext_XXXXXX"
     transform="matrix(1.3333333,0,0,-1.3333333,0,3333.3333)">
    <g
       id="g10"
       transform="scale(0.1)">
      <path
         d="M 4062.4,12500 1666.6,13958.3 V 6250 L 8333.3,2395.8 v 2812.5 l -4166.6,2395.8 -0.1,4895.9 h -104.2 z m 0,4791.7 L 6562.5,18750 4062.4,20208.3 1666.6,18750 V 15937.5 L 4062.4,14479.2 Z M 10000,18750 12395.8,17291.7 14895.8,18750 12500,20208.3 Z M 5833.3,8645.8 8229.2,7291.6 v 2812.5 L 5833.3,11562.5 V 8645.8 Z M 10000,4270.8 V 1458.3 L 12395.8,0 14791.6,1458.3 V 4270.8 L 12395.8,2812.5 10000,4270.8 Z m 8437.5,14479.2 2395.8,-1458.3 v -2812.5 l 2395.8,1458.3 V 18750 L 20833.3,20208.3 18437.5,18750 Z M 20833.3,7708.3 16666.7,5312.5 V 2500 l 6666.7,3854.1 v 7708.4 L 20833.3,12500 Z m -1770.8,937.5 v 2812.5 L 16666.7,10000 V 7291.6 l 2395.8,1354.2 z m 0,7708.3 -2395.8,1354.3 L 12500,15312.5 8229.2,17708.4 5833.3,16354.1 V 13541.6 L 9999.9,11145.8 10000,6250 12395.8,4791.6 14791.6,6250 v 4791.7 l 4166.7,2395.8 v 2916.6 h 104.2 z M 5833.3,21145.8 12500,25000 19166.7,21145.8 16666.7,19791.7 12500,22187.5 8229.2,19791.7 5833.3,21145.8 v 0"
         style="fill:#ecb50e;fill-opacity:1;fill-rule:nonzero;stroke:none"
         id="path12" />
    </g>
  </g>
</svg>
