<?xml version="1.0" encoding="UTF-8" standalone="no"?>
<!-- Created with Inkscape (http://www.inkscape.org/) -->

<svg
   version="1.1"
   id="svg2"
   width="800"
   height="800"
   viewBox="0 0 800 800"
   sodipodi:docname="the-vector-converter-1280-cLhcHioiTbiNHpbb.eps"
   xmlns:inkscape="http://www.inkscape.org/namespaces/inkscape"
   xmlns:sodipodi="http://sodipodi.sourceforge.net/DTD/sodipodi-0.dtd"
   xmlns="http://www.w3.org/2000/svg"
   xmlns:svg="http://www.w3.org/2000/svg">
  <defs
     id="defs6" />
  <sodipodi:namedview
     id="namedview4"
     pagecolor="#ffffff"
     bordercolor="#000000"
     borderopacity="0.25"
     inkscape:showpageshadow="2"
     inkscape:pageopacity="0.0"
     inkscape:pagecheckerboard="0"
     inkscape:deskcolor="#d1d1d1" />
  <g
     id="g8"
     inkscape:groupmode="layer"
     inkscape:label="ink_ext_XXXXXX"
     transform="matrix(1.3333333,0,0,-1.3333333,0,800)">
    <g
       id="g10"
       transform="scale(0.1)">
      <path
         d="M 6000,3000 C 6000,4656.85 4656.85,6000 3000,6000 1343.14,6000 0,4656.85 0,3000 0,1343.14 1343.14,0 3000,0 4656.85,0 6000,1343.14 6000,3000"
         style="fill:#ff0420;fill-opacity:1;fill-rule:nonzero;stroke:none"
         id="path12" />
      <path
         d="m 2125.2,2203.2 c -178.8,0 -325.2,42 -439.2,126 -112.8,85.2 -169.2,207.6 -169.2,364.8 0,33.6 3.6,73.2 10.8,121.2 19.2,108 46.8,237.6 82.8,390 102,412.8 366,619.2 790.8,619.2 115.2,0 219.6,-19.2 310.8,-58.8 91.2,-37.2 163.2,-94.8 216,-171.6 52.8,-75.6 79.2,-165.6 79.2,-270 0,-31.2 -3.6,-70.8 -10.8,-118.8 -22.8,-133.2 -49.2,-264 -81.6,-390 -52.8,-205.2 -142.8,-360 -272.4,-462 -128.4,-100.8 -301.2,-150 -517.2,-150 z m 32.4,324 c 84,0 154.8,25.2 213.6,74.4 60,49.2 103.2,124.8 128.4,228 34.8,141.6 61.2,264 79.2,369.6 6,31.2 9.6,63.6 9.6,97.2 0,136.8 -70.8,205.2 -213.6,205.2 -84,0 -156,-25.2 -216,-74.4 -58.8,-49.2 -100.8,-124.8 -126,-228 -27.6,-100.8 -54,-223.2 -81.6,-369.6 -6,-30 -9.6,-61.2 -9.6,-94.8 -1.2,-139.2 72,-207.6 216,-207.6"
         style="fill:#ffffff;fill-opacity:1;fill-rule:nonzero;stroke:none"
         id="path14" />
      <path
         d="m 3111.6,2224.8 c -16.8,0 -28.8,4.8 -38.4,15.6 -7.2,12 -9.6,25.2 -7.2,40.8 l 310.8,1464 c 2.4,16.8 10.8,30 25.2,40.8 13.2,10.8 27.6,15.6 43.2,15.6 H 4044 c 166.8,0 300,-34.8 400.8,-103.2 102,-69.6 153.6,-169.2 153.6,-300 0,-37.2 -4.8,-76.8 -13.2,-117.6 -37.2,-172.8 -112.8,-300 -228,-382.8 -112.8,-82.8 -267.6,-123.6 -464.4,-123.6 H 3589.2 L 3486,2281.2 c -3.6,-16.8 -10.8,-30 -25.2,-40.8 -13.2,-10.8 -27.6,-15.6 -43.2,-15.6 z m 796.8,860.4 c 63.6,0 117.6,16.8 164.4,51.6 48,34.8 79.2,84 94.8,148.8 4.8,25.2 7.2,48 7.2,67.2 0,43.2 -13.2,76.8 -38.4,99.6 -25.2,24 -69.6,36 -130.8,36 h -270 l -85.2,-403.2 h 258"
         style="fill:#ffffff;fill-opacity:1;fill-rule:nonzero;stroke:none"
         id="path16" />
    </g>
  </g>
</svg>
